<?xml version="1.0" standalone="no"?>
<!DOCTYPE svg PUBLIC "-//W3C//DTD SVG 20010904//EN"
 "http://www.w3.org/TR/2001/REC-SVG-20010904/DTD/svg10.dtd">
<svg version="1.0" xmlns="http://www.w3.org/2000/svg"
 width="314.000000pt" height="314.000000pt" viewBox="0 0 314.000000 314.000000"
 preserveAspectRatio="xMidYMid meet">
<metadata>
Created by potrace 1.14, written by Peter Selinger 2001-2017
</metadata>
<g transform="translate(0.000000,314.000000) scale(0.100000,-0.100000)"
fill="#000000" stroke="none">
<path d="M1470 2254 c-25 -7 -51 -12 -58 -9 -7 3 -61 -1 -120 -9 -59 -7 -134
-14 -167 -15 -95 -3 -111 -4 -330 -27 -27 -2 -110 -7 -183 -9 -73 -2 -137 -7
-143 -11 -6 -3 -56 -9 -112 -12 -123 -6 -133 -6 -224 1 -96 8 -133 -6 -133
-49 l0 -33 114 4 c98 4 119 1 152 -15 46 -24 80 -25 88 -4 4 10 14 14 26 11
11 -3 22 -1 25 3 3 5 19 5 35 0 18 -5 32 -5 35 1 12 18 23 8 30 -28 12 -60 13
-96 3 -122 -5 -15 -5 -27 1 -30 5 -4 8 -20 6 -36 -8 -76 21 -115 70 -93 25 11
26 15 21 66 -3 29 -8 57 -11 62 -3 4 -7 28 -10 52 -2 23 -7 67 -10 96 l-6 52
30 0 c17 0 31 4 31 9 0 5 15 5 35 1 19 -4 35 -5 35 -1 0 3 21 6 48 7 26 1 92
6 147 13 55 6 125 14 155 17 30 2 66 6 80 8 14 1 58 4 98 4 46 1 71 6 67 12
-4 6 17 10 57 10 35 0 106 7 158 16 52 8 109 16 125 17 42 3 69 21 62 41 -5
13 -22 16 -94 15 -48 0 -108 -7 -133 -15z"/>
<path d="M2248 2195 c-8 -19 -8 -28 3 -41 8 -10 14 -45 15 -93 1 -103 24 -164
63 -169 16 -3 24 3 28 17 8 31 48 27 132 -15 40 -19 79 -33 87 -30 8 3 14 1
14 -4 0 -19 58 -11 62 8 8 33 -12 59 -51 65 -20 3 -49 11 -66 18 -16 7 -32 12
-35 11 -3 0 -17 8 -30 19 -25 18 -25 19 -3 19 12 0 24 4 27 9 3 4 19 11 35 14
17 4 35 16 41 27 14 26 -2 41 -62 61 -21 7 -38 15 -38 20 0 6 -34 18 -57 20
-5 0 -12 4 -18 9 -5 4 -26 13 -47 19 -20 7 -39 18 -42 26 -9 24 -45 18 -58
-10z m130 -89 c15 -8 40 -17 56 -21 38 -8 23 -22 -36 -33 -55 -11 -63 -7 -73
36 -8 37 8 42 53 18z"/>
<path d="M2639 2213 c-8 -43 -6 -82 3 -101 10 -19 9 -29 -3 -51 -13 -22 -14
-32 -5 -50 7 -12 15 -18 19 -15 4 4 7 -2 7 -14 0 -12 5 -22 10 -22 6 0 10 -16
10 -35 0 -19 3 -36 8 -36 4 -1 16 -3 27 -5 11 -2 47 -6 80 -9 33 -3 63 -11 67
-18 5 -8 8 -7 8 3 0 11 18 20 61 29 34 7 58 15 55 18 -3 3 -1 12 5 20 9 10 7
18 -6 33 -17 19 -20 19 -36 4 -9 -8 -32 -17 -51 -19 -18 -3 -53 -7 -78 -10
-25 -3 -51 -2 -59 3 -12 9 -19 57 -9 67 2 3 49 7 104 10 114 7 134 11 134 30
0 20 -28 31 -70 29 -19 -1 -37 -2 -40 -3 -3 -1 -41 -3 -85 -5 -89 -3 -83 -7
-88 64 -2 21 2 25 23 22 111 -13 127 -12 140 2 19 24 6 41 -31 45 -19 1 -47 4
-64 6 -107 14 -135 16 -136 8z"/>
<path d="M2104 2135 c-15 -23 -15 -29 5 -89 32 -100 32 -102 -39 -101 -33 0
-60 4 -60 8 0 4 -9 3 -19 -2 -29 -16 -44 11 -48 85 -3 74 -7 84 -33 84 -23 0
-29 -19 -26 -90 1 -30 -1 -69 -4 -85 -5 -20 -2 -35 7 -43 7 -7 13 -11 13 -9 0
3 16 -1 36 -8 23 -8 52 -9 86 -4 32 5 56 5 63 -1 22 -18 103 0 120 26 8 13 11
24 5 24 -6 0 -10 29 -10 71 0 38 -3 68 -7 66 -13 -8 -32 19 -23 33 9 15 2 41
-14 52 -20 14 -35 8 -52 -17z"/>
<path d="M1750 2123 c0 -5 -31 -9 -68 -10 -38 0 -73 -3 -79 -6 -5 -3 -37 -4
-71 -1 -58 4 -63 2 -74 -20 -6 -14 -8 -31 -5 -39 8 -21 61 -31 85 -16 11 7 27
9 37 5 14 -5 16 -13 11 -40 -4 -19 -2 -37 3 -40 5 -3 8 -26 6 -51 -2 -37 2
-47 20 -59 37 -25 75 -10 75 30 0 13 -4 24 -10 24 -5 0 -10 15 -10 34 0 19 -4
37 -9 41 -10 6 -7 62 3 73 4 3 22 7 41 9 65 7 110 26 110 48 0 15 -8 21 -32
23 -18 2 -33 -1 -33 -5z"/>
<path d="M833 2060 c-22 -9 -40 -50 -29 -68 3 -5 1 -23 -4 -40 -5 -19 -5 -34
1 -37 5 -4 9 -19 9 -35 0 -33 26 -70 50 -70 8 -1 27 -11 42 -23 26 -21 32 -22
105 -13 69 8 81 13 102 39 l24 29 -22 18 c-22 16 -25 16 -60 -2 -51 -27 -159
-16 -148 15 4 13 17 15 147 22 113 6 137 17 125 54 -3 12 -11 19 -16 16 -5 -4
-66 -8 -136 -10 -128 -4 -142 -1 -143 33 0 10 23 11 100 8 81 -4 102 -2 115
10 8 9 15 18 15 22 0 15 -18 34 -27 29 -19 -12 -141 -8 -208 7 -11 2 -30 0
-42 -4z"/>
<path d="M1164 2055 c-9 -21 3 -45 21 -45 20 0 55 -36 55 -58 0 -9 -12 -31
-27 -47 -16 -16 -28 -33 -28 -37 0 -4 -6 -13 -12 -19 -20 -20 -16 -33 16 -52
32 -18 45 -22 37 -9 -3 5 4 15 15 22 10 8 19 19 19 25 0 6 14 26 31 45 28 30
33 32 43 18 24 -32 71 -22 87 20 7 19 6 29 -8 44 -13 14 -15 23 -7 35 12 20
-4 63 -23 63 -7 0 -28 -14 -48 -31 l-35 -31 -34 25 c-18 15 -36 24 -38 21 -3
-2 -11 2 -18 11 -16 19 -39 19 -46 0z"/>
<path d="M1834 1694 c3 -9 6 -41 7 -72 1 -37 3 -49 8 -34 l6 24 19 -21 c11
-12 24 -21 29 -21 6 0 0 11 -13 25 -23 25 -23 25 -4 47 17 21 16 21 -9 -1
l-27 -24 0 46 c0 28 -5 47 -11 47 -6 0 -8 -7 -5 -16z"/>
<path d="M2600 1685 c0 -19 -5 -25 -23 -25 -29 0 -47 -18 -47 -45 0 -27 18
-45 45 -44 19 0 19 1 -3 9 -12 5 -25 16 -28 25 -8 20 13 45 37 45 14 0 19 -9
22 -42 2 -29 4 -18 5 30 1 39 0 72 -3 72 -3 0 -5 -11 -5 -25z"/>
<path d="M457 1693 c19 -4 23 -12 26 -66 l3 -62 2 62 c2 55 4 62 25 66 12 2 0
4 -28 4 -27 0 -40 -2 -28 -4z"/>
<path d="M1161 1633 c1 -38 4 -56 6 -42 3 20 11 28 33 32 56 12 47 77 -11 77
l-29 0 1 -67z m59 42 c16 -19 -3 -45 -31 -45 -14 0 -19 7 -19 30 0 23 5 30 19
30 10 0 24 -7 31 -15z"/>
<path d="M2251 1686 c-16 -19 -6 -38 30 -59 38 -21 33 -42 -9 -42 -18 0 -32
-3 -32 -7 0 -14 57 -8 70 7 16 20 6 43 -25 57 -34 15 -33 45 3 51 l27 4 -26 2
c-15 0 -32 -5 -38 -13z"/>
<path d="M761 1678 c-1 -10 -5 -18 -10 -18 -9 0 1 -58 13 -79 4 -6 15 -10 24
-10 15 1 15 2 0 6 -21 5 -26 73 -5 73 8 0 9 3 1 8 -6 4 -14 14 -17 22 -4 12
-6 11 -6 -2z"/>
<path d="M1501 1678 c0 -10 -7 -18 -13 -18 -10 0 -10 -2 -1 -8 6 -4 13 -23 15
-42 2 -26 8 -36 23 -38 18 -2 18 -2 3 8 -11 6 -18 23 -18 40 0 19 6 30 18 33
15 4 15 5 0 6 -9 0 -19 9 -21 19 -4 16 -5 16 -6 0z"/>
<path d="M2361 1678 c-1 -10 -5 -18 -10 -18 -9 0 1 -58 13 -79 4 -6 15 -10 24
-10 15 1 15 2 0 6 -21 5 -26 73 -5 73 8 0 9 3 1 8 -6 4 -14 14 -17 22 -4 12
-6 11 -6 -2z"/>
<path d="M2155 1665 c-5 -2 -23 -6 -38 -9 -26 -6 -28 -10 -24 -46 2 -21 -1
-44 -6 -49 -25 -25 38 -54 71 -32 22 13 10 46 -18 49 -39 6 -44 19 -11 25 25
5 31 12 31 31 0 13 6 27 13 29 13 6 -2 7 -18 2z m-7 -32 c5 -17 -26 -29 -40
-15 -6 6 -7 15 -3 22 9 14 37 9 43 -7z m10 -80 c-4 -22 -47 -30 -59 -12 -12
20 -1 29 32 29 24 0 30 -4 27 -17z"/>
<path d="M552 1648 c-15 -15 -15 -51 0 -66 7 -7 23 -11 38 -11 24 1 24 2 -4 8
-44 9 -45 31 -2 31 39 0 41 2 26 31 -12 21 -40 25 -58 7z m46 -15 c2 -8 -6
-13 -22 -13 -25 0 -33 10 -19 24 10 10 36 3 41 -11z"/>
<path d="M654 1641 c17 -18 17 -21 1 -48 l-17 -28 20 23 21 23 13 -20 c7 -12
17 -21 22 -21 4 0 1 12 -9 26 -16 24 -16 27 1 45 9 10 14 19 9 19 -4 0 -14 -8
-21 -17 -13 -17 -15 -17 -25 0 -5 9 -15 17 -21 17 -6 0 -3 -9 6 -19z"/>
<path d="M820 1627 c0 -40 15 -57 52 -57 27 0 28 2 27 48 l-2 47 -6 -40 c-5
-32 -11 -41 -28 -43 -21 -3 -23 1 -23 37 0 23 -4 41 -10 41 -5 0 -10 -15 -10
-33z"/>
<path d="M931 1610 l2 -45 6 39 c4 26 13 42 26 47 17 6 15 7 -7 6 -26 -1 -28
-4 -27 -47z"/>
<path d="M1012 1648 c-33 -33 2 -84 51 -75 19 4 19 4 -4 6 -15 0 -32 8 -39 16
-11 13 -7 15 24 15 23 0 36 5 36 13 0 18 -21 37 -40 37 -9 0 -21 -5 -28 -12z
m52 -13 c4 -11 -2 -15 -24 -15 -22 0 -28 4 -24 15 4 8 14 15 24 15 10 0 20 -7
24 -15z"/>
<path d="M1265 1614 c0 -24 3 -44 8 -44 4 0 7 16 7 35 0 28 5 38 23 44 20 8
19 9 -8 9 -29 -1 -30 -3 -30 -44z"/>
<path d="M1343 1615 c0 -27 2 -38 4 -22 2 15 2 37 0 50 -2 12 -4 0 -4 -28z"/>
<path d="M1380 1616 c0 -25 5 -46 10 -46 6 0 10 18 10 39 0 22 -4 43 -10 46
-6 4 -10 -12 -10 -39z"/>
<path d="M1425 1651 c13 -5 22 -21 26 -47 l7 -39 -2 45 c-1 40 -4 45 -26 47
-22 2 -23 2 -5 -6z"/>
<path d="M1570 1611 l4 -46 6 40 c4 32 9 40 25 40 16 0 21 -9 26 -40 l5 -40 5
40 c3 32 8 40 24 40 16 0 21 -9 26 -40 l7 -40 -2 45 -1 45 -65 1 -65 1 5 -46z"/>
<path d="M1768 1653 c26 -5 29 -20 5 -26 -16 -4 -16 -5 -1 -6 10 -1 18 -12 21
-28 3 -16 4 -8 3 17 -1 41 -3 45 -26 46 -22 1 -22 0 -2 -3z"/>
<path d="M1937 1618 c8 -59 13 -61 13 -5 0 26 -4 47 -9 47 -5 0 -7 -19 -4 -42z"/>
<path d="M1980 1615 c0 -27 2 -46 4 -44 8 8 10 78 3 85 -4 4 -7 -14 -7 -41z"/>
<path d="M2025 1651 c13 -5 22 -21 26 -47 l7 -39 -2 45 c-1 40 -4 45 -26 47
-22 2 -23 2 -5 -6z"/>
<path d="M2420 1627 c0 -40 15 -57 52 -57 27 0 28 2 27 48 l-2 47 -6 -40 c-5
-32 -11 -41 -28 -43 -21 -3 -23 1 -23 37 0 23 -4 41 -10 41 -5 0 -10 -15 -10
-33z"/>
<path d="M2647 1618 c8 -59 13 -61 13 -5 0 26 -4 47 -9 47 -5 0 -7 -19 -4 -42z"/>
<path d="M2697 1642 c-10 -10 -17 -24 -17 -30 0 -17 29 -42 48 -41 12 0 10 3
-6 10 -29 11 -28 62 2 67 24 5 38 -16 31 -46 -4 -15 -2 -21 5 -17 14 8 13 48
-2 63 -17 17 -42 15 -61 -6z"/>
<path d="M1734 1605 c-8 -21 4 -35 29 -34 22 0 22 0 -2 10 -15 6 -21 15 -17
24 3 8 3 15 0 15 -2 0 -7 -7 -10 -15z"/>
<path d="M2737 1544 c-10 -11 -8 -63 3 -85 10 -18 7 -19 -45 -19 -30 0 -63 5
-73 11 -14 9 -26 8 -50 -5 -33 -17 -43 -50 -18 -59 8 -3 16 -29 20 -66 8 -66
21 -76 61 -47 13 10 25 11 37 5 10 -6 19 -5 23 1 4 6 11 8 16 4 5 -3 0 -18
-12 -35 -32 -46 -23 -64 36 -66 28 -1 53 -2 58 -2 11 -1 8 -36 -4 -48 -8 -8
-21 -8 -46 0 -31 10 -37 9 -49 -8 -25 -34 -16 -40 66 -49 27 -3 36 -9 38 -26
2 -13 0 -20 -6 -16 -6 3 -12 1 -14 -5 -2 -7 -12 -7 -33 1 -21 8 -31 8 -33 1
-2 -6 -7 -9 -11 -7 -4 3 -7 -4 -6 -16 1 -11 9 -25 18 -30 24 -13 88 -13 130 1
26 9 42 9 56 1 16 -8 25 -7 41 7 11 10 20 25 20 35 0 15 -9 18 -45 18 -38 0
-45 3 -45 20 0 11 3 19 8 19 43 -7 48 26 6 46 -25 12 -34 22 -34 41 0 22 3 24
23 18 12 -4 29 -7 37 -8 8 -1 20 -7 26 -15 7 -8 19 -11 33 -6 19 6 21 11 15
43 -3 20 -12 47 -20 59 -19 30 -18 36 4 24 19 -10 44 3 54 30 4 9 -1 44 -9 78
-14 54 -19 62 -37 59 -19 -3 -21 -9 -18 -50 2 -30 0 -48 -7 -48 -6 0 -11 -10
-11 -23 0 -12 -9 -28 -20 -35 -11 -7 -20 -21 -20 -32 0 -15 -7 -20 -27 -21
-84 -3 -109 11 -64 37 17 10 31 22 31 26 0 4 9 8 21 8 15 0 20 5 17 23 -2 17
-9 21 -28 20 -141 -14 -209 -10 -217 14 -3 7 20 11 64 12 37 1 84 3 103 5 19
1 51 3 71 4 30 2 37 6 41 27 6 30 -16 39 -70 30 l-37 -6 -15 53 c-14 49 -35
70 -53 52z"/>
<path d="M1088 1491 c4 -35 1 -40 -20 -43 -12 -2 -39 0 -58 4 -19 4 -35 6 -36
5 -1 -1 -4 -11 -8 -22 -10 -36 8 -49 68 -47 36 0 59 -4 67 -14 11 -13 4 -19
-22 -16 -11 2 -84 1 -128 -1 -40 -2 -46 -6 -58 -35 l-13 -32 69 5 c38 3 79 8
91 10 39 8 80 -6 80 -26 0 -15 -8 -19 -39 -19 -22 0 -42 4 -46 10 -10 16 -35
-1 -35 -25 0 -30 22 -47 57 -44 57 4 83 0 77 -15 -4 -11 -11 -12 -34 -3 -40
15 -63 -8 -50 -51 6 -23 5 -34 -5 -42 -22 -19 12 -50 55 -50 l35 0 -32 -16
c-32 -16 -35 -37 -7 -48 8 -3 14 -14 14 -24 0 -11 7 -25 15 -32 8 -7 15 -18
15 -25 0 -7 16 -20 35 -29 19 -9 35 -18 35 -20 0 -4 -61 3 -77 8 -6 3 -22 -3
-35 -12 -19 -14 -47 -17 -168 -17 -80 0 -148 -4 -151 -9 -4 -5 -21 -4 -39 3
-18 6 -37 8 -43 4 -13 -8 -126 -15 -229 -15 -37 0 -70 -4 -74 -9 -3 -5 -10 -6
-16 -3 -15 9 -118 10 -118 2 0 -5 -9 -8 -19 -8 -15 0 -19 -6 -17 -27 3 -29 32
-43 71 -36 11 2 47 5 80 8 33 2 103 7 155 11 52 4 112 8 133 8 20 0 37 3 37 7
0 4 8 5 18 3 35 -7 132 -11 132 -5 0 10 161 11 197 1 18 -4 35 -5 38 0 5 8
163 6 343 -5 52 -3 98 -2 104 1 6 4 53 8 105 10 52 2 103 6 113 9 9 3 29 1 44
-4 14 -6 26 -7 26 -3 0 4 33 8 73 8 39 1 117 5 172 9 93 7 151 8 315 5 68 -1
167 11 236 29 26 7 53 7 73 1 20 -5 31 -5 31 1 0 6 15 9 33 8 44 -4 178 11
200 22 33 18 20 39 -25 40 -105 4 -357 -9 -372 -19 -16 -10 -121 -15 -323 -16
-106 0 -193 -4 -193 -8 0 -4 -28 -8 -62 -8 -35 -1 -83 -3 -108 -4 -25 0 -48
-5 -52 -11 -5 -7 -14 -6 -26 1 -10 6 -38 10 -62 7 -88 -8 -371 -10 -376 -1 -3
4 -16 8 -30 8 -21 0 -23 3 -14 19 25 47 -1 118 -56 154 -19 12 -34 26 -34 30
0 5 23 6 50 3 41 -4 52 -2 57 11 9 24 -19 39 -76 38 -60 0 -67 10 -12 19 32 5
51 20 51 41 0 2 -17 7 -37 11 -49 9 -53 12 -46 30 4 11 14 14 37 10 17 -3 42
0 56 7 20 10 24 19 22 45 -2 27 1 31 18 29 11 -2 22 -6 26 -10 9 -9 44 11 44
26 0 17 -38 39 -58 33 -27 -9 -45 10 -44 45 1 44 -19 56 -88 53 -66 -4 -77 4
-82 56 -2 29 -7 36 -28 38 -24 3 -25 1 -22 -37z m159 -128 c3 -9 -8 -12 -34
-11 -44 1 -56 6 -47 19 8 14 77 7 81 -8z m18 -83 c0 -15 -49 -30 -72 -22 -17
5 -17 39 -1 44 23 8 73 -8 73 -22z m-145 -170 c0 -5 -7 -7 -15 -4 -8 4 -15 8
-15 10 0 2 7 4 15 4 8 0 15 -4 15 -10z m103 -195 c-3 -9 -8 -14 -10 -11 -3 3
-2 9 2 15 9 16 15 13 8 -4z m32 -65 c3 -5 2 -10 -4 -10 -5 0 -13 5 -16 10 -3
6 -2 10 4 10 5 0 13 -4 16 -10z m35 -10 c0 -5 -2 -10 -4 -10 -3 0 -8 5 -11 10
-3 6 -1 10 4 10 6 0 11 -4 11 -10z"/>
<path d="M2181 1492 c-9 -18 -16 -43 -28 -102 -4 -21 1 -27 26 -37 17 -6 34
-20 37 -30 3 -10 9 -25 14 -34 6 -11 3 -24 -7 -38 -13 -20 -13 -24 0 -39 11
-12 15 -35 14 -75 -2 -42 2 -60 13 -67 8 -5 11 -10 7 -10 -4 0 -3 -9 3 -20 14
-26 42 -25 59 1 11 18 11 23 -1 30 -23 15 6 25 71 23 52 -2 61 1 67 18 3 11 2
24 -3 28 -10 10 -123 17 -123 8 0 -16 -28 4 -33 23 -6 23 8 31 61 33 118 6
114 5 110 29 -3 21 -7 22 -87 22 l-85 0 -8 33 c-5 19 -7 39 -5 45 4 14 85 21
100 8 8 -6 23 -5 45 4 37 16 37 18 16 49 -13 22 -19 23 -50 15 -19 -6 -38 -8
-42 -5 -5 3 -34 1 -65 -3 -31 -4 -60 -5 -65 -2 -4 3 -8 28 -8 55 1 52 -15 71
-33 38z"/>
<path d="M525 1400 c-4 -6 -2 -25 3 -43 16 -50 22 -111 14 -125 -6 -8 -19 -10
-39 -6 -34 7 -42 23 -48 101 -4 49 -11 63 -30 63 -19 0 -32 -48 -25 -95 4 -31
1 -48 -17 -75 l-24 -35 22 -18 c12 -10 19 -20 16 -23 -3 -4 1 -14 10 -22 10
-11 12 -17 4 -20 -6 -2 -16 -13 -23 -25 -10 -20 -10 -21 5 -8 15 12 17 11 19
-10 0 -13 2 -28 3 -34 2 -5 3 -22 4 -36 1 -30 38 -47 57 -26 16 16 27 84 15
91 -5 3 -7 14 -4 24 3 15 15 19 55 21 l50 1 -4 -58 c-4 -74 11 -96 56 -86 17
4 37 7 44 7 6 0 12 7 12 14 0 8 4 12 10 8 5 -3 25 -6 44 -7 39 -1 72 22 87 60
l9 23 42 -30 c31 -21 50 -28 69 -24 30 5 58 51 36 57 -6 2 -31 9 -54 15 -25 7
-43 18 -43 26 0 8 18 32 40 53 86 82 59 103 -136 103 -91 0 -111 9 -120 55
l-6 32 103 -2 c99 -1 104 0 101 19 -2 11 -5 21 -6 22 -1 2 -51 5 -112 8 -60 3
-122 7 -139 8 -22 1 -32 -4 -41 -21 l-12 -23 -6 25 c-6 26 -29 35 -41 16z m99
-122 c9 -17 16 -42 16 -55 0 -12 5 -23 10 -23 6 0 10 -8 10 -19 0 -21 -47 -33
-90 -21 -24 6 -24 7 8 13 27 6 32 10 27 29 -10 47 -13 108 -5 108 5 0 16 -14
24 -32z m266 -80 c0 -10 -49 -58 -60 -58 -3 0 -18 11 -34 25 -16 14 -37 25
-48 25 -10 0 -18 4 -18 8 0 5 36 9 80 10 51 0 80 -3 80 -10z m-91 -105 c6 -4
-31 -32 -41 -33 -10 0 -11 44 -1 53 3 4 13 1 22 -5 9 -7 18 -14 20 -15z m-122
-52 c-17 -7 -29 18 -22 46 l7 28 12 -35 c6 -19 8 -37 3 -39z"/>
<path d="M1501 1377 c-38 -38 19 -80 96 -70 l50 5 8 -43 c4 -24 8 -54 9 -66 0
-12 4 -25 9 -29 4 -4 7 -18 7 -30 0 -26 -30 -40 -57 -26 -16 8 -61 7 -89 -2
-20 -7 -10 -46 16 -59 14 -7 45 -11 70 -10 95 5 249 5 258 -1 11 -6 23 30 16
47 -3 8 -32 12 -75 13 -77 1 -91 10 -85 54 2 14 0 30 -4 35 -12 15 -23 115
-13 116 4 0 34 2 67 4 66 4 87 16 64 38 -10 11 -34 14 -86 12 -40 -2 -72 0
-72 4 0 4 -24 7 -52 7 -29 0 -70 2 -90 5 -21 4 -42 1 -47 -4z"/>
<path d="M1866 1304 c-3 -8 -6 -19 -6 -24 0 -8 41 -20 87 -26 82 -9 111 -36
100 -93 -4 -17 -2 -31 3 -31 5 0 7 -13 4 -30 -7 -32 12 -60 40 -60 15 0 22 30
17 70 -1 8 -2 28 -2 43 0 15 -7 43 -14 61 -16 38 -9 46 41 46 30 0 42 26 22
46 -13 13 -27 14 -97 4 -45 -6 -86 -8 -93 -4 -6 4 -30 9 -53 11 -32 2 -44 -1
-49 -13z"/>
<path d="M3018 1079 c-10 -5 -18 -14 -18 -20 0 -14 49 -30 66 -21 12 7 12 11
-2 30 -17 25 -22 26 -46 11z"/>
<path d="M263 1033 c-7 -3 -13 -11 -13 -18 0 -8 -7 -18 -16 -23 -14 -8 -14
-10 0 -21 8 -7 27 -11 43 -9 22 2 29 9 31 30 3 28 -21 50 -45 41z"/>
</g>
</svg>
